<svg width="275" height="69" viewBox="0 0 275 69" fill="none" xmlns="http://www.w3.org/2000/svg">
<g filter="url(#filter0_d_10_472)">
<path d="M31.8906 0L38.4747 21.0081H59.7813L42.5439 33.9919L49.128 55L31.8906 42.0163L14.6533 55L21.2374 33.9919L4 21.0081H25.3065L31.8906 0Z" fill="#6D3710"/>
</g>
<g filter="url(#filter1_d_10_472)">
<path d="M46.1094 0L52.6935 21.0081H74L56.7627 33.9919L63.3467 55L46.1094 42.0163L28.872 55L35.4561 33.9919L18.2188 21.0081H39.5253L46.1094 0Z" fill="#9D480B"/>
</g>
<path d="M269.499 35.2255C269.829 35.2255 270.136 35.1852 270.42 35.1045C270.656 35.0373 270.88 34.9298 271.093 34.7819C271.317 34.6206 271.465 34.3854 271.536 34.0762C271.772 34.13 271.973 34.177 272.138 34.2173C272.303 34.2442 272.445 34.2711 272.563 34.298C272.693 34.3383 272.805 34.3652 272.9 34.3787C272.994 34.4055 273.106 34.4324 273.236 34.4593C273.354 34.4862 273.496 34.5198 273.661 34.5601C273.838 34.587 274.045 34.6273 274.281 34.6811C274.104 34.6542 273.921 34.6744 273.732 34.7416C273.555 34.8088 273.384 34.8827 273.218 34.9634C273.029 35.0575 272.852 35.1718 272.687 35.3062C272.581 35.3868 272.457 35.5078 272.315 35.6691C272.185 35.8304 271.996 35.985 271.748 36.1329C271.5 36.2807 271.17 36.4085 270.756 36.516C270.355 36.6101 269.835 36.6437 269.198 36.6168C268.43 36.5899 267.786 36.4353 267.267 36.153C266.747 35.8573 266.328 35.5011 266.009 35.0844C265.69 34.6542 265.46 34.1905 265.318 33.6931C265.177 33.1957 265.1 32.732 265.088 32.3018C265.076 31.8717 265.188 31.4213 265.425 30.9509C265.661 30.4804 265.991 30.0502 266.417 29.6604C266.853 29.2706 267.379 28.9547 267.993 28.7127C268.607 28.4573 269.28 28.3296 270.012 28.3296C270.437 28.3296 270.827 28.3901 271.181 28.5111C271.547 28.6186 271.878 28.7665 272.173 28.9547C272.48 29.1429 272.746 29.3579 272.97 29.5999C273.195 29.8284 273.384 30.0637 273.537 30.3056C273.691 30.561 273.821 30.8299 273.927 31.1122C274.021 31.3541 274.098 31.6297 274.157 31.9389C274.216 32.248 274.234 32.5639 274.21 32.8866C273.313 32.9134 272.587 32.9336 272.032 32.947C271.488 32.9605 271.063 32.9672 270.756 32.9672H269.959H269.357C269.144 32.9672 268.867 32.9739 268.524 32.9874C268.182 33.0008 267.763 33.021 267.267 33.0479C267.326 33.5856 267.473 34.0023 267.71 34.298C267.958 34.5803 268.217 34.7954 268.489 34.9432C268.796 35.1045 269.133 35.1986 269.499 35.2255ZM267.904 31.5961C268.282 31.623 268.595 31.6431 268.843 31.6566C269.103 31.67 269.316 31.6835 269.481 31.6969C269.658 31.7103 269.8 31.7171 269.906 31.7171H270.349C270.644 31.7171 271.193 31.6969 271.996 31.6566C271.961 31.0651 271.849 30.6148 271.66 30.3056C271.483 29.9964 271.294 29.7679 271.093 29.6201C270.857 29.4587 270.597 29.3647 270.313 29.3378C269.546 29.3512 268.973 29.5327 268.595 29.8822C268.229 30.2317 267.999 30.803 267.904 31.5961Z" fill="black"/>
<path d="M261.776 29.9224C261.74 29.6536 261.711 29.4318 261.687 29.257C261.664 29.0688 261.64 28.921 261.616 28.8134C261.593 28.679 261.575 28.5782 261.563 28.511C261.54 28.4438 261.51 28.3698 261.475 28.2892C261.451 28.222 261.41 28.1413 261.351 28.0472C261.303 27.9531 261.244 27.8456 261.173 27.7246C261.327 27.7784 261.48 27.812 261.634 27.8254C261.799 27.8389 261.953 27.8523 262.095 27.8658C262.248 27.8792 262.407 27.8792 262.573 27.8658C262.738 27.8658 262.927 27.859 263.14 27.8456C263.329 27.8321 263.553 27.8254 263.813 27.8254C264.084 27.812 264.391 27.7918 264.734 27.7649C264.533 27.8187 264.362 27.9128 264.22 28.0472C264.09 28.1682 263.978 28.3026 263.884 28.4505C263.777 28.6118 263.689 28.7866 263.618 28.9747C263.559 29.1495 263.523 29.4856 263.512 29.9829C263.5 30.4669 263.5 31.0449 263.512 31.717C263.523 32.3757 263.535 33.0881 263.547 33.8543C263.571 34.6205 263.582 35.3532 263.582 36.0522C263.594 36.7512 263.594 37.3897 263.582 37.9677C263.571 38.5323 263.541 38.949 263.494 39.2178C263.329 40.0647 263.022 40.7503 262.573 41.2745C262.124 41.8122 261.534 42.1012 260.801 42.1415C259.916 42.1819 259.213 42.0878 258.694 41.8593C258.186 41.6307 257.79 41.3484 257.507 41.0124C257.223 40.6898 257.011 40.3604 256.869 40.0244C256.727 39.6883 256.58 39.4329 256.426 39.2582C256.285 39.1103 256.143 38.9691 256.001 38.8347C255.871 38.7272 255.735 38.6196 255.594 38.5121C255.464 38.4046 255.334 38.3374 255.204 38.3105C255.547 38.3239 255.854 38.3306 256.125 38.3306C256.397 38.3306 256.627 38.3306 256.816 38.3306C257.029 38.3306 257.217 38.3239 257.383 38.3105H257.95H259.562C259.325 38.3911 259.148 38.4785 259.03 38.5726C258.912 38.6801 258.829 38.7877 258.782 38.8952C258.735 39.0162 258.711 39.1372 258.711 39.2582C258.759 39.5808 258.912 39.816 259.172 39.9639C259.432 40.1117 259.786 40.1991 260.235 40.226C260.672 40.2529 260.973 40.2395 261.138 40.1857C261.303 40.1454 261.433 40.0647 261.528 39.9437C261.717 39.6211 261.876 39.2044 262.006 38.6936C262.1 38.2634 262.165 37.7056 262.201 37.02C262.248 36.321 262.195 35.4674 262.041 34.4592C261.664 35.0507 261.227 35.4943 260.731 35.79C260.235 36.0858 259.762 36.3008 259.314 36.4353C258.782 36.5831 258.245 36.6571 257.702 36.6571C256.273 36.5898 255.204 36.2135 254.496 35.5279C253.787 34.8423 253.462 33.9215 253.521 32.7655C253.557 32.1875 253.71 31.6095 253.982 31.0314C254.265 30.4534 254.631 29.9359 255.08 29.4788C255.541 29.0218 256.066 28.6589 256.657 28.39C257.247 28.1212 257.861 28.0069 258.499 28.0472C258.983 28.101 259.438 28.2018 259.863 28.3497C260.229 28.4841 260.589 28.6723 260.943 28.9143C261.309 29.1562 261.587 29.4923 261.776 29.9224ZM256.143 31.9388C256.072 32.463 256.102 32.9537 256.231 33.4107C256.373 33.8678 256.568 34.2643 256.816 34.6004C257.064 34.923 257.341 35.1784 257.649 35.3666C257.956 35.5413 258.245 35.622 258.516 35.6086C259.083 35.5951 259.573 35.3061 259.987 34.7415C260.4 34.1635 260.648 33.3032 260.731 32.1606C260.766 31.596 260.701 31.1121 260.536 30.7088C260.382 30.2921 260.187 29.956 259.951 29.7006C259.715 29.4452 259.467 29.2638 259.207 29.1562C258.947 29.0487 258.741 29.0016 258.587 29.0151C258.375 29.042 258.139 29.1159 257.879 29.2369C257.631 29.3444 257.389 29.5124 257.153 29.741C256.916 29.956 256.704 30.2451 256.515 30.608C256.338 30.9709 256.214 31.4145 256.143 31.9388Z" fill="black"/>
<path d="M243.336 36.254C243.419 35.8104 243.478 35.4206 243.513 35.0845C243.561 34.735 243.596 34.446 243.62 34.2175C243.643 33.9487 243.655 33.7201 243.655 33.532C243.643 33.3034 243.631 33.0346 243.62 32.7254C243.62 32.4028 243.608 32.0869 243.584 31.7777C243.572 31.4551 243.555 31.1728 243.531 30.9309C243.507 30.6755 243.478 30.494 243.443 30.3864C243.395 30.2789 243.33 30.1646 243.248 30.0437C243.082 29.8151 242.84 29.5933 242.521 29.3783C242.793 29.3111 243.023 29.2573 243.212 29.217C243.413 29.1632 243.578 29.1161 243.708 29.0758C243.85 29.022 243.974 28.975 244.08 28.9347C244.175 28.8943 244.287 28.854 244.417 28.8137C244.523 28.7868 244.653 28.7532 244.806 28.7129C244.96 28.6725 245.137 28.6255 245.338 28.5717L245.285 30.4066C245.663 29.8958 246.046 29.5127 246.436 29.2573C246.826 29.0019 247.192 28.8204 247.534 28.7129C247.924 28.5784 248.308 28.5112 248.686 28.5112C249.158 28.5381 249.595 28.6255 249.996 28.7734C250.41 28.9212 250.764 29.096 251.059 29.2976C251.366 29.4858 251.614 29.6874 251.803 29.9025C251.992 30.1176 252.104 30.3058 252.14 30.4671C252.281 30.9913 252.317 31.4753 252.246 31.9189C252.175 32.349 252.081 32.7725 251.963 33.1892C251.856 33.5924 251.762 33.9957 251.679 34.399C251.608 34.8023 251.638 35.2391 251.768 35.7096C251.815 35.8306 251.862 35.9516 251.909 36.0726C251.957 36.1801 252.016 36.2876 252.087 36.3952C252.157 36.5027 252.24 36.5901 252.335 36.6573C252.205 36.6439 252.075 36.6371 251.945 36.6371C251.815 36.6237 251.697 36.6103 251.591 36.5968C251.461 36.5834 251.343 36.5699 251.236 36.5565C251.118 36.543 250.959 36.5363 250.758 36.5363C250.416 36.5363 249.884 36.5565 249.164 36.5968C249.27 36.3145 249.353 36.0793 249.412 35.8911C249.483 35.6895 249.542 35.5281 249.589 35.4072C249.636 35.2593 249.672 35.145 249.695 35.0644C249.837 34.6746 249.92 34.231 249.943 33.7336C249.979 33.2362 249.949 32.7321 249.855 32.2213C249.819 32.0466 249.76 31.8382 249.678 31.5963C249.595 31.3543 249.483 31.119 249.341 30.8905C249.211 30.662 249.052 30.4671 248.863 30.3058C248.686 30.1445 248.479 30.0504 248.243 30.0235C248.007 29.9966 247.741 30.0638 247.446 30.2251C247.162 30.3864 246.855 30.6822 246.525 31.1123C246.277 31.4753 246.082 31.9189 245.94 32.4431C245.81 32.8867 245.722 33.4446 245.674 34.1167C245.627 34.7754 245.698 35.5483 245.887 36.4355C245.722 36.4086 245.568 36.3952 245.426 36.3952C245.285 36.3817 245.167 36.3683 245.072 36.3549C244.954 36.3414 244.848 36.328 244.753 36.3145C244.647 36.3145 244.529 36.3078 244.399 36.2944C244.281 36.2944 244.133 36.2944 243.956 36.2944C243.779 36.2809 243.572 36.2675 243.336 36.254Z" fill="black"/>
<path d="M234.373 30.3059C234.432 30.2253 234.468 30.0774 234.48 29.8623C234.503 29.6338 234.55 29.3784 234.621 29.0961C234.704 28.8138 234.84 28.5181 235.029 28.2089C235.218 27.8997 235.525 27.6107 235.95 27.3419C236.363 27.073 236.765 26.9117 237.154 26.8579C237.544 26.8042 237.916 26.8243 238.27 26.9184C238.625 27.0125 238.955 27.1604 239.262 27.362C239.581 27.5637 239.87 27.7855 240.13 28.0274C240.307 28.1887 240.449 28.424 240.555 28.7332C240.662 29.0289 240.744 29.3649 240.803 29.7413C240.862 30.1177 240.904 30.5143 240.927 30.931C240.963 31.3342 240.986 31.7308 240.998 32.1206C241.01 32.497 241.016 32.8465 241.016 33.1691C241.028 33.4783 241.051 33.7337 241.087 33.9353C241.134 34.2311 241.217 34.4865 241.335 34.7016C241.453 34.9032 241.583 35.0779 241.724 35.2258C241.866 35.3602 242.008 35.4678 242.149 35.5484C242.291 35.6291 242.415 35.6896 242.521 35.7299C242.592 35.7702 242.657 35.7971 242.716 35.8106C242.834 35.8643 242.917 35.8643 242.964 35.8106C242.893 35.9988 242.828 36.1601 242.769 36.2945C242.71 36.4289 242.663 36.5432 242.628 36.6373C242.58 36.7448 242.539 36.8322 242.504 36.8994C242.468 36.98 242.427 37.054 242.38 37.1212C242.344 37.1884 242.297 37.2623 242.238 37.343C242.179 37.4236 242.12 37.511 242.061 37.6051C241.907 37.5379 241.76 37.4572 241.618 37.3632C241.488 37.2691 241.37 37.1817 241.264 37.101C241.134 37.0069 241.016 36.9128 240.91 36.8187C240.803 36.7246 240.703 36.6171 240.608 36.4961C240.526 36.3886 240.437 36.2743 240.343 36.1533C240.26 36.0324 240.189 35.8979 240.13 35.7501C240.059 35.9248 239.888 36.1735 239.616 36.4961C239.357 36.8187 239.014 37.1145 238.589 37.3833C238.164 37.6387 237.668 37.8202 237.101 37.9277C236.546 38.0353 235.932 37.9613 235.259 37.7059C234.964 37.5984 234.686 37.4438 234.426 37.2422C234.167 37.0271 233.942 36.7717 233.753 36.476C233.576 36.1802 233.446 35.8442 233.364 35.4678C233.293 35.0779 233.299 34.6478 233.381 34.1773C233.464 33.7068 233.612 33.3103 233.824 32.9877C234.037 32.665 234.291 32.4029 234.586 32.2013C234.881 31.9996 235.212 31.8451 235.578 31.7375C235.944 31.63 236.322 31.556 236.711 31.5157C237.019 31.5023 237.326 31.5224 237.633 31.5762C237.892 31.63 238.164 31.7308 238.447 31.8787C238.731 32.0131 238.973 32.2214 239.174 32.5037C239.162 31.7913 239.138 31.2267 239.103 30.81C239.079 30.3798 239.056 30.0505 239.032 29.822C238.985 29.5531 238.943 29.3649 238.908 29.2574C238.849 29.1633 238.784 29.0558 238.713 28.9348C238.654 28.8138 238.577 28.7063 238.483 28.6122C238.388 28.5046 238.27 28.4173 238.129 28.35C237.987 28.2828 237.822 28.2559 237.633 28.2694C237.432 28.2828 237.272 28.3433 237.154 28.4509C237.036 28.5584 236.942 28.6861 236.871 28.834C236.812 28.9684 236.776 29.1163 236.765 29.2776C236.753 29.4389 236.759 29.58 236.782 29.701C236.806 29.7817 236.841 29.869 236.889 29.9631C236.936 30.0438 237.001 30.1312 237.083 30.2253C237.166 30.3194 237.278 30.4 237.42 30.4672C237.148 30.5075 236.906 30.5412 236.694 30.568C236.481 30.5815 236.298 30.6016 236.145 30.6285C235.968 30.6554 235.814 30.6756 235.684 30.689C235.554 30.7025 235.401 30.7293 235.224 30.7697C235.07 30.7966 234.881 30.8302 234.657 30.8705C234.432 30.9108 234.173 30.9646 233.877 31.0318C233.948 30.9377 234.013 30.8503 234.072 30.7697C234.131 30.6756 234.184 30.5949 234.232 30.5277C234.279 30.4471 234.326 30.3731 234.373 30.3059ZM237.03 32.7054C236.818 32.7188 236.605 32.7793 236.393 32.8868C236.18 32.9809 235.991 33.1221 235.826 33.3103C235.661 33.485 235.519 33.6934 235.401 33.9353C235.294 34.1639 235.241 34.4193 235.241 34.7016C235.241 34.9839 235.3 35.2325 235.418 35.4476C235.548 35.6492 235.714 35.8173 235.914 35.9517C236.127 36.0861 236.351 36.1668 236.587 36.1937C236.835 36.2206 237.078 36.1937 237.314 36.113C237.538 36.0189 237.751 35.871 237.951 35.6694C238.152 35.4543 238.323 35.2258 238.465 34.9839C238.607 34.7284 238.707 34.4798 238.766 34.2378C238.825 33.9824 238.831 33.774 238.784 33.6127C238.689 33.2632 238.477 33.0213 238.146 32.8868C237.816 32.739 237.444 32.6785 237.03 32.7054Z" fill="black"/>
<path d="M223.037 23.188C223.308 23.2418 223.556 23.2821 223.781 23.309C224.005 23.3224 224.194 23.3359 224.348 23.3493C224.525 23.3628 224.678 23.3695 224.808 23.3695C224.985 23.356 225.192 23.3359 225.428 23.309C225.629 23.2821 225.871 23.2485 226.154 23.2082C226.45 23.1679 226.786 23.1141 227.164 23.0469C226.987 23.1544 226.839 23.262 226.721 23.3695C226.603 23.4636 226.509 23.5644 226.438 23.6719C226.355 23.7929 226.29 23.9072 226.243 24.0147C226.184 24.1895 226.119 24.5524 226.048 25.1036C225.977 25.574 225.889 26.273 225.782 27.2006C225.688 28.1281 225.564 29.385 225.41 30.9711C225.836 30.4872 226.237 30.1243 226.615 29.8823C227.005 29.6269 227.347 29.4454 227.642 29.3379C227.985 29.2169 228.304 29.1564 228.599 29.1564C228.965 29.1968 229.337 29.3312 229.715 29.5597C230.104 29.7748 230.465 30.0302 230.795 30.3259C231.138 30.6216 231.433 30.9375 231.681 31.2736C231.941 31.6097 232.124 31.9054 232.23 32.1608C232.301 32.3355 232.336 32.5641 232.336 32.8464C232.336 33.1152 232.313 33.4109 232.265 33.7336C232.218 34.0562 232.153 34.3855 232.071 34.7216C231.988 35.0576 231.905 35.3735 231.823 35.6693C231.752 35.965 231.687 36.2271 231.628 36.4556C231.569 36.6707 231.533 36.8253 231.521 36.9194C231.498 37.121 231.51 37.3159 231.557 37.5041C231.592 37.6654 231.663 37.8402 231.769 38.0284C231.876 38.2031 232.035 38.351 232.248 38.472C232.082 38.4451 231.905 38.4249 231.716 38.4115C231.539 38.3846 231.368 38.3645 231.203 38.351C231.014 38.3376 230.825 38.3308 230.636 38.3308H229.998C229.797 38.3308 229.567 38.3376 229.307 38.351C229.048 38.351 228.764 38.3577 228.457 38.3712C228.622 38.304 228.764 38.2166 228.882 38.109C229 37.9881 229.101 37.8738 229.183 37.7663C229.278 37.6453 229.36 37.5176 229.431 37.3832C229.479 37.2756 229.538 37.074 229.608 36.7783C229.679 36.4691 229.744 36.1196 229.803 35.7297C229.862 35.3265 229.904 34.903 229.927 34.4594C229.963 34.0158 229.969 33.5924 229.945 33.1891C229.933 32.7724 229.88 32.4028 229.786 32.0801C229.703 31.7575 229.573 31.5223 229.396 31.3744C228.865 30.9174 228.38 30.6956 227.943 30.709C227.518 30.709 227.111 30.9039 226.721 31.2938C226.58 31.4416 226.444 31.5895 226.314 31.7374C226.196 31.8718 226.066 32.0331 225.924 32.2213C225.782 32.396 225.653 32.5775 225.534 32.7657C225.534 32.9673 225.54 33.1891 225.552 33.4311C225.564 33.6731 225.576 33.9083 225.588 34.1368C225.599 34.3922 225.617 34.6476 225.641 34.903C225.664 35.2929 225.7 35.676 225.747 36.0524C225.782 36.375 225.83 36.7312 225.889 37.121C225.948 37.4974 226.024 37.8402 226.119 38.1494C225.965 38.1225 225.806 38.1158 225.641 38.1292C225.475 38.1292 225.316 38.1292 225.162 38.1292C224.985 38.1427 224.814 38.1494 224.649 38.1494C224.495 38.1628 224.336 38.183 224.171 38.2099C224.029 38.2367 223.875 38.2636 223.71 38.2905C223.545 38.304 223.385 38.3308 223.232 38.3712C223.373 38.062 223.492 37.7595 223.586 37.4638C223.68 37.1546 223.757 36.8858 223.816 36.6573C223.887 36.3884 223.946 36.1263 223.993 35.8709C224.029 35.6693 224.052 35.2861 224.064 34.7216C224.088 34.1435 224.106 33.4849 224.117 32.7455C224.129 31.9928 224.135 31.1997 224.135 30.3662C224.135 29.5328 224.129 28.7397 224.117 27.9869C224.106 27.2342 224.082 26.5755 224.047 26.0109C224.023 25.4463 223.993 25.0565 223.958 24.8414C223.911 24.6264 223.846 24.4113 223.763 24.1962C223.692 24.008 223.598 23.8265 223.48 23.6518C223.362 23.4636 223.214 23.309 223.037 23.188Z" fill="black"/>
<path d="M223.391 31.3137C223.249 31.2868 223.072 31.2667 222.86 31.2532C222.659 31.2398 222.464 31.2331 222.275 31.2331C222.063 31.2331 221.838 31.2398 221.602 31.2532C221.354 31.2667 221.106 31.2801 220.858 31.2935C220.646 31.307 220.404 31.3272 220.132 31.354C219.872 31.3675 219.618 31.3876 219.37 31.4145C219.465 31.3608 219.547 31.2868 219.618 31.1927C219.701 31.0986 219.772 31.0045 219.831 30.9104C219.89 30.8029 219.943 30.6886 219.99 30.5677C220.049 30.366 220.043 30.1241 219.972 29.8418C219.902 29.546 219.772 29.2772 219.583 29.0352C219.406 28.7933 219.175 28.6051 218.892 28.4706C218.62 28.3228 218.319 28.2892 217.989 28.3698C217.634 28.4639 217.316 28.6051 217.032 28.7933C216.76 28.9815 216.53 29.2436 216.341 29.5796C216.164 29.9023 216.034 30.3055 215.952 30.7895C215.881 31.2599 215.863 31.8245 215.898 32.4832C215.946 33.3032 216.064 33.9551 216.253 34.4391C216.442 34.923 216.672 35.2859 216.944 35.5279C217.215 35.7699 217.51 35.9177 217.829 35.9715C218.16 36.0118 218.485 36.0118 218.803 35.9715C219.028 35.9177 219.234 35.8035 219.423 35.6287C219.577 35.4808 219.719 35.2658 219.849 34.9835C219.978 34.7012 220.037 34.3114 220.026 33.814L222.187 33.7132C221.939 34.5063 221.638 35.1381 221.283 35.6085C220.929 36.0656 220.587 36.4218 220.256 36.6772C219.866 36.9729 219.477 37.1746 219.087 37.2821C218.603 37.3762 218.172 37.4165 217.794 37.4031C217.416 37.3762 217.073 37.309 216.766 37.2015C216.459 37.0939 216.176 36.9595 215.916 36.7982C215.656 36.6369 215.408 36.4621 215.172 36.2739C215.019 36.153 214.847 35.9513 214.659 35.669C214.47 35.3867 214.292 35.0507 214.127 34.6609C213.962 34.2576 213.826 33.814 213.72 33.3301C213.613 32.8461 213.572 32.3488 213.596 31.838C213.619 31.3137 213.726 30.7895 213.915 30.2652C214.104 29.741 214.405 29.2369 214.818 28.7529C215.444 28.027 216.111 27.5566 216.82 27.3415C217.54 27.113 218.219 27.0525 218.857 27.16C219.494 27.2541 220.061 27.4625 220.557 27.7851C221.053 28.1077 221.401 28.4572 221.602 28.8336C221.803 29.21 221.95 29.499 222.045 29.7006C222.151 29.8888 222.228 30.0367 222.275 30.1442C222.334 30.2383 222.381 30.3123 222.417 30.366C222.464 30.4063 222.529 30.4668 222.612 30.5475C222.671 30.6147 222.742 30.6886 222.824 30.7693C222.895 30.8365 222.978 30.9172 223.072 31.0113C223.167 31.1054 223.273 31.2062 223.391 31.3137Z" fill="black"/>
<path d="M204.597 27.2814C204.94 27.2814 205.223 27.2881 205.448 27.3016C205.672 27.3016 205.849 27.3016 205.979 27.3016H206.333H206.741C206.906 27.3016 207.124 27.3016 207.396 27.3016C207.68 27.2881 208.046 27.268 208.494 27.2411C208.282 27.2948 208.116 27.3553 207.998 27.4225C207.88 27.4763 207.792 27.5368 207.733 27.604C207.662 27.6712 207.62 27.7452 207.609 27.8258C207.62 27.9334 207.662 28.1014 207.733 28.3299C207.792 28.5315 207.892 28.8071 208.034 29.1566C208.187 29.5061 208.412 29.9766 208.707 30.5681C209.203 29.9228 209.581 29.412 209.841 29.0356C210.1 28.6592 210.295 28.3702 210.425 28.1686C210.555 27.9401 210.632 27.7855 210.655 27.7048C210.644 27.6376 210.626 27.5704 210.602 27.5032C210.567 27.3957 210.478 27.2276 210.336 26.9991C210.655 27.026 210.933 27.0462 211.169 27.0596C211.405 27.0596 211.606 27.0663 211.771 27.0798C211.96 27.0932 212.114 27.0999 212.232 27.0999C212.362 27.0999 212.551 27.0932 212.799 27.0798C212.999 27.0663 213.271 27.0529 213.613 27.0394C213.968 27.0126 214.411 26.9722 214.942 26.9185C214.505 27.1604 214.133 27.3957 213.826 27.6242C213.519 27.8393 213.265 28.0342 213.064 28.2089C212.828 28.4106 212.633 28.5988 212.48 28.7735C212.326 28.9751 212.137 29.2238 211.913 29.5196C211.712 29.7884 211.464 30.1245 211.169 30.5277C210.886 30.9176 210.537 31.4082 210.124 31.9997C210.431 32.6046 210.72 33.1221 210.992 33.5523C211.275 33.9824 211.517 34.3386 211.718 34.6209C211.954 34.957 212.173 35.2258 212.374 35.4275C212.574 35.6291 212.793 35.8307 213.029 36.0324C213.23 36.2071 213.46 36.3953 213.72 36.597C213.991 36.7852 214.281 36.9532 214.588 37.101C214.281 37.1279 213.98 37.1481 213.684 37.1615C213.401 37.1615 213.147 37.175 212.923 37.2019C212.663 37.2288 212.415 37.2489 212.179 37.2624C211.942 37.2892 211.7 37.3094 211.452 37.3228C211.24 37.3363 211.004 37.3497 210.744 37.3632C210.484 37.3766 210.218 37.3833 209.947 37.3833C210.053 37.2624 210.136 37.1481 210.195 37.0406C210.254 36.933 210.301 36.8389 210.336 36.7583C210.384 36.6642 210.413 36.5768 210.425 36.4961C210.413 36.3886 210.354 36.2139 210.248 35.9719C210.153 35.7568 210.006 35.4611 209.805 35.0847C209.604 34.6949 209.309 34.1706 208.919 33.5119C208.648 33.8346 208.429 34.1168 208.264 34.3588C208.111 34.6008 207.992 34.8024 207.91 34.9637C207.815 35.1519 207.75 35.3065 207.715 35.4275C207.691 35.5485 207.691 35.6829 207.715 35.8307C207.739 35.9517 207.774 36.0996 207.821 36.2743C207.868 36.4357 207.951 36.6037 208.069 36.7784C207.479 36.8188 206.983 36.8389 206.581 36.8389H205.979C205.79 36.8389 205.566 36.8322 205.306 36.8188C205.082 36.8053 204.804 36.7986 204.473 36.7986C204.131 36.7852 203.735 36.765 203.287 36.7381C203.417 36.6843 203.552 36.6171 203.694 36.5365C203.836 36.4558 203.96 36.3819 204.066 36.3147C204.196 36.234 204.32 36.1466 204.438 36.0525C204.568 35.9316 204.775 35.703 205.058 35.367C205.294 35.0847 205.619 34.6881 206.032 34.1773C206.445 33.6531 206.983 32.9541 207.644 32.0803C207.254 31.2738 206.936 30.6353 206.688 30.1648C206.451 29.6809 206.268 29.3045 206.138 29.0356C205.985 28.7265 205.873 28.5181 205.802 28.4106C205.731 28.303 205.637 28.182 205.518 28.0476C205.33 27.8325 205.023 27.5771 204.597 27.2814Z" fill="black"/>
<path d="M193.438 24.7002C194.265 24.7271 194.95 24.7472 195.493 24.7607C196.048 24.7607 196.497 24.7607 196.839 24.7607H197.778H203.056C203.08 25.0295 203.098 25.2917 203.109 25.5471C203.133 25.789 203.145 26.0041 203.145 26.1923C203.145 26.4208 203.139 26.6292 203.127 26.8174C203.115 27.0056 203.098 27.2072 203.074 27.4223C203.05 27.6105 203.027 27.8121 203.003 28.0272C202.98 28.2423 202.938 28.4641 202.879 28.6926C202.714 27.9667 202.49 27.4156 202.206 27.0392C201.935 26.6628 201.657 26.3872 201.374 26.2125C201.043 26.0108 200.695 25.9033 200.329 25.8898C199.844 25.9167 199.466 25.9638 199.195 26.031C198.923 26.0982 198.711 26.1923 198.557 26.3133C198.404 26.4343 198.286 26.5754 198.203 26.7367C198.132 26.8846 198.055 27.0526 197.973 27.2408C197.902 27.4021 197.837 27.6508 197.778 27.9869C197.719 28.2691 197.66 28.6523 197.601 29.1362C197.553 29.6201 197.5 30.2452 197.441 31.0114C197.76 30.9038 198.014 30.803 198.203 30.7089C198.404 30.6148 198.563 30.5342 198.681 30.467C198.811 30.3863 198.906 30.3124 198.965 30.2452C199.012 30.1645 199.083 30.0167 199.177 29.8016C199.248 29.6134 199.342 29.358 199.461 29.0354C199.59 28.7127 199.744 28.2691 199.921 27.7046C199.945 28.3229 199.957 28.8404 199.957 29.2572C199.957 29.6604 199.962 29.9898 199.974 30.2452C199.974 30.5409 199.98 30.7761 199.992 30.9509V31.7171C199.992 31.9994 199.992 32.3825 199.992 32.8664C200.004 33.3369 200.021 33.9351 200.045 34.661C199.903 34.1636 199.774 33.7738 199.655 33.4915C199.549 33.1958 199.455 32.974 199.372 32.8261C199.278 32.6514 199.195 32.5304 199.124 32.4632C199.041 32.4363 198.929 32.4094 198.787 32.3825C198.658 32.3691 198.492 32.3623 198.292 32.3623C198.103 32.3623 197.86 32.3959 197.565 32.4632C197.53 33.2025 197.524 33.8007 197.548 34.2577C197.583 34.7013 197.63 35.0441 197.689 35.2861C197.748 35.5683 197.819 35.77 197.902 35.891C198.008 36.0119 198.221 36.1128 198.539 36.1934C198.858 36.2606 199.218 36.2875 199.62 36.2741C200.033 36.2472 200.453 36.1665 200.878 36.0321C201.303 35.8977 201.681 35.6759 202.011 35.3667C202.259 35.1113 202.525 34.7887 202.808 34.3989C203.045 34.0628 203.304 33.6394 203.588 33.1286C203.883 32.6177 204.172 31.9994 204.456 31.2735C204.408 31.8784 204.373 32.3825 204.349 32.7858C204.338 33.1756 204.32 33.4915 204.296 33.7335C204.273 34.0158 204.255 34.2308 204.243 34.3787C204.243 34.54 204.225 34.7685 204.19 35.0643C204.166 35.3197 204.125 35.6692 204.066 36.1128C204.019 36.5429 203.954 37.0941 203.871 37.7662C203.316 37.7796 202.791 37.7931 202.295 37.8065C201.799 37.8065 201.362 37.8132 200.984 37.8267C200.535 37.8401 200.122 37.8536 199.744 37.867C199.354 37.867 198.923 37.8872 198.451 37.9275C198.038 37.9544 197.548 37.9947 196.981 38.0485C196.426 38.1022 195.812 38.1762 195.139 38.2703C195.198 37.3562 195.239 36.4959 195.263 35.6893C195.298 34.8693 195.322 34.1502 195.333 33.5318C195.345 32.8059 195.345 32.1338 195.333 31.5155C195.392 29.9696 195.369 28.7195 195.263 27.7651C195.156 26.8106 195.032 26.199 194.891 25.9302C194.82 25.8361 194.719 25.7218 194.589 25.5874C194.483 25.4799 194.336 25.3522 194.147 25.2043C193.958 25.0564 193.721 24.8884 193.438 24.7002Z" fill="black"/>
<path d="M183.2 35.2255C183.531 35.2255 183.838 35.1852 184.121 35.1045C184.357 35.0373 184.581 34.9298 184.794 34.7819C185.018 34.6206 185.166 34.3854 185.237 34.0762C185.473 34.13 185.674 34.177 185.839 34.2173C186.004 34.2442 186.146 34.2711 186.264 34.298C186.394 34.3383 186.506 34.3652 186.601 34.3787C186.695 34.4055 186.807 34.4324 186.937 34.4593C187.055 34.4862 187.197 34.5198 187.362 34.5601C187.54 34.587 187.746 34.6273 187.982 34.6811C187.805 34.6542 187.622 34.6744 187.433 34.7416C187.256 34.8088 187.085 34.8827 186.92 34.9634C186.731 35.0575 186.554 35.1718 186.388 35.3062C186.282 35.3868 186.158 35.5078 186.016 35.6691C185.886 35.8304 185.697 35.985 185.449 36.1329C185.201 36.2807 184.871 36.4085 184.457 36.516C184.056 36.6101 183.536 36.6437 182.899 36.6168C182.131 36.5899 181.488 36.4353 180.968 36.153C180.448 35.8573 180.029 35.5011 179.71 35.0844C179.392 34.6542 179.161 34.1905 179.02 33.6931C178.878 33.1957 178.801 32.732 178.789 32.3018C178.777 31.8717 178.89 31.4213 179.126 30.9509C179.362 30.4804 179.693 30.0502 180.118 29.6604C180.555 29.2706 181.08 28.9547 181.694 28.7127C182.308 28.4573 182.981 28.3296 183.714 28.3296C184.139 28.3296 184.528 28.3901 184.883 28.5111C185.249 28.6186 185.579 28.7665 185.875 28.9547C186.182 29.1429 186.447 29.3579 186.672 29.5999C186.896 29.8284 187.085 30.0637 187.238 30.3056C187.392 30.561 187.522 30.8299 187.628 31.1122C187.723 31.3541 187.799 31.6297 187.858 31.9389C187.917 32.248 187.935 32.5639 187.912 32.8866C187.014 32.9134 186.288 32.9336 185.733 32.947C185.19 32.9605 184.765 32.9672 184.457 32.9672H183.66H183.058C182.846 32.9672 182.568 32.9739 182.226 32.9874C181.883 33.0008 181.464 33.021 180.968 33.0479C181.027 33.5856 181.175 34.0023 181.411 34.298C181.659 34.5803 181.919 34.7954 182.19 34.9432C182.497 35.1045 182.834 35.1986 183.2 35.2255ZM181.606 31.5961C181.984 31.623 182.296 31.6431 182.544 31.6566C182.804 31.67 183.017 31.6835 183.182 31.6969C183.359 31.7103 183.501 31.7171 183.607 31.7171H184.05C184.345 31.7171 184.894 31.6969 185.697 31.6566C185.662 31.0651 185.55 30.6148 185.361 30.3056C185.184 29.9964 184.995 29.7679 184.794 29.6201C184.558 29.4587 184.298 29.3647 184.015 29.3378C183.247 29.3512 182.674 29.5327 182.296 29.8822C181.93 30.2317 181.7 30.803 181.606 31.5961Z" fill="black"/>
<path d="M175.477 29.9224C175.441 29.6536 175.412 29.4318 175.388 29.257C175.365 29.0688 175.341 28.921 175.317 28.8134C175.294 28.679 175.276 28.5782 175.264 28.511C175.241 28.4438 175.211 28.3698 175.176 28.2892C175.152 28.222 175.111 28.1413 175.052 28.0472C175.005 27.9531 174.945 27.8456 174.875 27.7246C175.028 27.7784 175.182 27.812 175.335 27.8254C175.5 27.8389 175.654 27.8523 175.796 27.8658C175.949 27.8792 176.109 27.8792 176.274 27.8658C176.439 27.8658 176.628 27.859 176.841 27.8456C177.03 27.8321 177.254 27.8254 177.514 27.8254C177.785 27.812 178.093 27.7918 178.435 27.7649C178.234 27.8187 178.063 27.9128 177.921 28.0472C177.791 28.1682 177.679 28.3026 177.585 28.4505C177.478 28.6118 177.39 28.7866 177.319 28.9747C177.26 29.1495 177.225 29.4856 177.213 29.9829C177.201 30.4669 177.201 31.0449 177.213 31.717C177.225 32.3757 177.236 33.0881 177.248 33.8543C177.272 34.6205 177.284 35.3532 177.284 36.0522C177.295 36.7512 177.295 37.3897 177.284 37.9677C177.272 38.5323 177.242 38.949 177.195 39.2178C177.03 40.0647 176.723 40.7503 176.274 41.2745C175.825 41.8122 175.235 42.1012 174.503 42.1415C173.617 42.1819 172.914 42.0878 172.395 41.8593C171.887 41.6307 171.491 41.3484 171.208 41.0124C170.925 40.6898 170.712 40.3604 170.57 40.0244C170.429 39.6883 170.281 39.4329 170.127 39.2582C169.986 39.1103 169.844 38.9691 169.702 38.8347C169.572 38.7272 169.437 38.6196 169.295 38.5121C169.165 38.4046 169.035 38.3374 168.905 38.3105C169.248 38.3239 169.555 38.3306 169.826 38.3306C170.098 38.3306 170.328 38.3306 170.517 38.3306C170.73 38.3306 170.919 38.3239 171.084 38.3105H171.651H173.263C173.027 38.3911 172.849 38.4785 172.731 38.5726C172.613 38.6801 172.531 38.7877 172.483 38.8952C172.436 39.0162 172.412 39.1372 172.412 39.2582C172.46 39.5808 172.613 39.816 172.873 39.9639C173.133 40.1117 173.487 40.1991 173.936 40.226C174.373 40.2529 174.674 40.2395 174.839 40.1857C175.005 40.1454 175.134 40.0647 175.229 39.9437C175.418 39.6211 175.577 39.2044 175.707 38.6936C175.802 38.2634 175.867 37.7056 175.902 37.02C175.949 36.321 175.896 35.4674 175.743 34.4592C175.365 35.0507 174.928 35.4943 174.432 35.79C173.936 36.0858 173.463 36.3008 173.015 36.4353C172.483 36.5831 171.946 36.6571 171.403 36.6571C169.974 36.5898 168.905 36.2135 168.197 35.5279C167.488 34.8423 167.163 33.9215 167.223 32.7655C167.258 32.1875 167.411 31.6095 167.683 31.0314C167.966 30.4534 168.333 29.9359 168.781 29.4788C169.242 29.0218 169.767 28.6589 170.358 28.39C170.948 28.1212 171.562 28.0069 172.2 28.0472C172.684 28.101 173.139 28.2018 173.564 28.3497C173.93 28.4841 174.29 28.6723 174.644 28.9143C175.01 29.1562 175.288 29.4923 175.477 29.9224ZM169.844 31.9388C169.773 32.463 169.803 32.9537 169.933 33.4107C170.074 33.8678 170.269 34.2643 170.517 34.6004C170.765 34.923 171.043 35.1784 171.35 35.3666C171.657 35.5413 171.946 35.622 172.218 35.6086C172.784 35.5951 173.275 35.3061 173.688 34.7415C174.101 34.1635 174.349 33.3032 174.432 32.1606C174.467 31.596 174.402 31.1121 174.237 30.7088C174.083 30.2921 173.889 29.956 173.652 29.7006C173.416 29.4452 173.168 29.2638 172.908 29.1562C172.649 29.0487 172.442 29.0016 172.288 29.0151C172.076 29.042 171.84 29.1159 171.58 29.2369C171.332 29.3444 171.09 29.5124 170.854 29.741C170.618 29.956 170.405 30.2451 170.216 30.608C170.039 30.9709 169.915 31.4145 169.844 31.9388Z" fill="black"/>
<path d="M158.702 30.3059C158.761 30.2253 158.797 30.0774 158.809 29.8623C158.832 29.6338 158.88 29.3784 158.95 29.0961C159.033 28.8138 159.169 28.5181 159.358 28.2089C159.547 27.8997 159.854 27.6107 160.279 27.3419C160.692 27.073 161.094 26.9117 161.483 26.8579C161.873 26.8042 162.245 26.8243 162.599 26.9184C162.954 27.0125 163.284 27.1604 163.591 27.362C163.91 27.5637 164.199 27.7855 164.459 28.0274C164.636 28.1887 164.778 28.424 164.884 28.7332C164.991 29.0289 165.073 29.3649 165.132 29.7413C165.191 30.1177 165.233 30.5143 165.256 30.931C165.292 31.3342 165.315 31.7308 165.327 32.1206C165.339 32.497 165.345 32.8465 165.345 33.1691C165.357 33.4783 165.38 33.7337 165.416 33.9353C165.463 34.2311 165.546 34.4865 165.664 34.7016C165.782 34.9032 165.912 35.0779 166.053 35.2258C166.195 35.3602 166.337 35.4678 166.479 35.5484C166.62 35.6291 166.744 35.6896 166.851 35.7299C166.921 35.7702 166.986 35.7971 167.045 35.8106C167.163 35.8643 167.246 35.8643 167.293 35.8106C167.223 35.9988 167.158 36.1601 167.099 36.2945C167.039 36.4289 166.992 36.5432 166.957 36.6373C166.91 36.7448 166.868 36.8322 166.833 36.8994C166.797 36.98 166.756 37.054 166.709 37.1212C166.673 37.1884 166.626 37.2623 166.567 37.343C166.508 37.4236 166.449 37.511 166.39 37.6051C166.236 37.5379 166.089 37.4572 165.947 37.3632C165.817 37.2691 165.699 37.1817 165.593 37.101C165.463 37.0069 165.345 36.9128 165.239 36.8187C165.132 36.7246 165.032 36.6171 164.937 36.4961C164.855 36.3886 164.766 36.2743 164.672 36.1533C164.589 36.0324 164.518 35.8979 164.459 35.7501C164.388 35.9248 164.217 36.1735 163.946 36.4961C163.686 36.8187 163.343 37.1145 162.918 37.3833C162.493 37.6387 161.997 37.8202 161.43 37.9277C160.875 38.0353 160.261 37.9613 159.588 37.7059C159.293 37.5984 159.015 37.4438 158.756 37.2422C158.496 37.0271 158.271 36.7717 158.082 36.476C157.905 36.1802 157.775 35.8442 157.693 35.4678C157.622 35.0779 157.628 34.6478 157.711 34.1773C157.793 33.7068 157.941 33.3103 158.153 32.9877C158.366 32.665 158.62 32.4029 158.915 32.2013C159.21 31.9996 159.541 31.8451 159.907 31.7375C160.273 31.63 160.651 31.556 161.041 31.5157C161.348 31.5023 161.655 31.5224 161.962 31.5762C162.221 31.63 162.493 31.7308 162.776 31.8787C163.06 32.0131 163.302 32.2214 163.503 32.5037C163.491 31.7913 163.467 31.2267 163.432 30.81C163.408 30.3798 163.385 30.0505 163.361 29.822C163.314 29.5531 163.272 29.3649 163.237 29.2574C163.178 29.1633 163.113 29.0558 163.042 28.9348C162.983 28.8138 162.906 28.7063 162.812 28.6122C162.717 28.5046 162.599 28.4173 162.458 28.35C162.316 28.2828 162.151 28.2559 161.962 28.2694C161.761 28.2828 161.602 28.3433 161.483 28.4509C161.365 28.5584 161.271 28.6861 161.2 28.834C161.141 28.9684 161.106 29.1163 161.094 29.2776C161.082 29.4389 161.088 29.58 161.111 29.701C161.135 29.7817 161.17 29.869 161.218 29.9631C161.265 30.0438 161.33 30.1312 161.413 30.2253C161.495 30.3194 161.607 30.4 161.749 30.4672C161.478 30.5075 161.235 30.5412 161.023 30.568C160.81 30.5815 160.627 30.6016 160.474 30.6285C160.297 30.6554 160.143 30.6756 160.013 30.689C159.883 30.7025 159.73 30.7293 159.553 30.7697C159.399 30.7966 159.21 30.8302 158.986 30.8705C158.761 30.9108 158.502 30.9646 158.206 31.0318C158.277 30.9377 158.342 30.8503 158.401 30.7697C158.46 30.6756 158.514 30.5949 158.561 30.5277C158.608 30.4471 158.655 30.3731 158.702 30.3059ZM161.359 32.7054C161.147 32.7188 160.934 32.7793 160.722 32.8868C160.509 32.9809 160.32 33.1221 160.155 33.3103C159.99 33.485 159.848 33.6934 159.73 33.9353C159.624 34.1639 159.57 34.4193 159.57 34.7016C159.57 34.9839 159.629 35.2325 159.748 35.4476C159.877 35.6492 160.043 35.8173 160.243 35.9517C160.456 36.0861 160.68 36.1668 160.917 36.1937C161.165 36.2206 161.407 36.1937 161.643 36.113C161.867 36.0189 162.08 35.871 162.281 35.6694C162.481 35.4543 162.652 35.2258 162.794 34.9839C162.936 34.7284 163.036 34.4798 163.095 34.2378C163.154 33.9824 163.16 33.774 163.113 33.6127C163.019 33.2632 162.806 33.0213 162.475 32.8868C162.145 32.739 161.773 32.6785 161.359 32.7054Z" fill="black"/>
<path d="M147.827 29.1968C148.134 29.264 148.399 29.3177 148.624 29.3581C148.86 29.3849 149.061 29.4118 149.226 29.4387C149.415 29.4656 149.58 29.4858 149.722 29.4992C149.864 29.5126 150.029 29.5261 150.218 29.5395C150.537 29.553 150.985 29.553 151.564 29.5395C151.222 29.5126 150.95 29.6135 150.749 29.842C150.56 30.0571 150.419 30.3057 150.324 30.588C150.206 30.9241 150.141 31.3139 150.129 31.7575C150.106 32.349 150.117 32.8867 150.165 33.3706C150.224 33.8411 150.324 34.2444 150.466 34.5804C150.619 34.903 150.82 35.145 151.068 35.3063C151.316 35.4542 151.635 35.4945 152.025 35.4273C152.414 35.3601 152.709 35.2055 152.91 34.9635C153.123 34.7081 153.276 34.3989 153.371 34.036C153.465 33.6596 153.518 33.2362 153.53 32.7657C153.554 32.2952 153.572 31.8046 153.583 31.2938C153.583 30.783 153.577 30.42 153.566 30.2049C153.566 29.9764 153.56 29.8285 153.548 29.7613C153.536 29.6941 153.518 29.6672 153.495 29.6807C153.471 29.6807 153.442 29.6471 153.406 29.5799C153.383 29.5261 153.347 29.4723 153.3 29.4186C153.264 29.3648 153.217 29.3043 153.158 29.2371C153.099 29.1564 153.034 29.0758 152.963 28.9951C153.27 29.0086 153.542 29.022 153.778 29.0354C154.026 29.0354 154.233 29.0422 154.398 29.0556C154.587 29.0691 154.752 29.0825 154.894 29.0959C155.024 29.1094 155.195 29.1295 155.408 29.1564C155.585 29.1833 155.815 29.2102 156.099 29.2371C156.382 29.264 156.719 29.3043 157.108 29.3581C156.837 29.4253 156.618 29.5261 156.453 29.6605C156.288 29.7949 156.158 29.9294 156.063 30.0638C155.957 30.2117 155.88 30.373 155.833 30.5477C155.797 30.7762 155.797 31.1257 155.833 31.5962C155.857 32.0129 155.916 32.5842 156.01 33.3101C156.105 34.036 156.252 34.9904 156.453 36.1733L155.054 37.121L154.77 34.4393C154.428 35.098 154.062 35.6088 153.672 35.9717C153.294 36.3212 152.94 36.5766 152.609 36.7379C152.219 36.9261 151.842 37.0337 151.475 37.0605C150.991 37.0605 150.572 37.0269 150.218 36.9597C149.875 36.8791 149.58 36.7782 149.332 36.6573C149.084 36.5363 148.883 36.4019 148.73 36.254C148.588 36.0927 148.482 35.9314 148.411 35.7701C148.246 35.434 148.157 35.0039 148.145 34.4796C148.134 33.9419 148.151 33.4109 148.199 32.8867C148.246 32.349 148.299 31.8583 148.358 31.4147C148.417 30.9711 148.435 30.6687 148.411 30.5074C148.387 30.3864 148.352 30.252 148.305 30.1041C148.258 29.9831 148.199 29.8487 148.128 29.7008C148.057 29.5395 147.956 29.3715 147.827 29.1968Z" fill="black"/>
<path d="M144.62 29.9224C144.585 29.6536 144.556 29.4318 144.532 29.257C144.508 29.0688 144.485 28.921 144.461 28.8134C144.437 28.679 144.42 28.5782 144.408 28.511C144.384 28.4438 144.355 28.3698 144.319 28.2892C144.296 28.222 144.254 28.1413 144.195 28.0472C144.148 27.9531 144.089 27.8456 144.018 27.7246C144.172 27.7784 144.325 27.812 144.479 27.8254C144.644 27.8389 144.798 27.8523 144.939 27.8658C145.093 27.8792 145.252 27.8792 145.418 27.8658C145.583 27.8658 145.772 27.859 145.984 27.8456C146.173 27.8321 146.398 27.8254 146.657 27.8254C146.929 27.812 147.236 27.7918 147.579 27.7649C147.378 27.8187 147.207 27.9128 147.065 28.0472C146.935 28.1682 146.823 28.3026 146.728 28.4505C146.622 28.6118 146.533 28.7866 146.463 28.9747C146.404 29.1495 146.368 29.4856 146.356 29.9829C146.345 30.4669 146.345 31.0449 146.356 31.717C146.368 32.3757 146.38 33.0881 146.392 33.8543C146.415 34.6205 146.427 35.3532 146.427 36.0522C146.439 36.7512 146.439 37.3897 146.427 37.9677C146.415 38.5323 146.386 38.949 146.339 39.2178C146.173 40.0647 145.866 40.7503 145.418 41.2745C144.969 41.8122 144.378 42.1012 143.646 42.1415C142.761 42.1819 142.058 42.0878 141.538 41.8593C141.031 41.6307 140.635 41.3484 140.352 41.0124C140.068 40.6898 139.856 40.3604 139.714 40.0244C139.572 39.6883 139.425 39.4329 139.271 39.2582C139.129 39.1103 138.988 38.9691 138.846 38.8347C138.716 38.7272 138.58 38.6196 138.439 38.5121C138.309 38.4046 138.179 38.3374 138.049 38.3105C138.391 38.3239 138.698 38.3306 138.97 38.3306C139.242 38.3306 139.472 38.3306 139.661 38.3306C139.873 38.3306 140.062 38.3239 140.228 38.3105H140.794H142.406C142.17 38.3911 141.993 38.4785 141.875 38.5726C141.757 38.6801 141.674 38.7877 141.627 38.8952C141.58 39.0162 141.556 39.1372 141.556 39.2582C141.603 39.5808 141.757 39.816 142.017 39.9639C142.276 40.1117 142.631 40.1991 143.079 40.226C143.516 40.2529 143.817 40.2395 143.983 40.1857C144.148 40.1454 144.278 40.0647 144.372 39.9437C144.561 39.6211 144.721 39.2044 144.851 38.6936C144.945 38.2634 145.01 37.7056 145.046 37.02C145.093 36.321 145.04 35.4674 144.886 34.4592C144.508 35.0507 144.071 35.4943 143.575 35.79C143.079 36.0858 142.607 36.3008 142.158 36.4353C141.627 36.5831 141.09 36.6571 140.546 36.6571C139.118 36.5898 138.049 36.2135 137.34 35.5279C136.632 34.8423 136.307 33.9215 136.366 32.7655C136.402 32.1875 136.555 31.6095 136.827 31.0314C137.11 30.4534 137.476 29.9359 137.925 29.4788C138.385 29.0218 138.911 28.6589 139.501 28.39C140.092 28.1212 140.706 28.0069 141.344 28.0472C141.828 28.101 142.282 28.2018 142.707 28.3497C143.074 28.4841 143.434 28.6723 143.788 28.9143C144.154 29.1562 144.432 29.4923 144.62 29.9224ZM138.988 31.9388C138.917 32.463 138.946 32.9537 139.076 33.4107C139.218 33.8678 139.413 34.2643 139.661 34.6004C139.909 34.923 140.186 35.1784 140.493 35.3666C140.8 35.5413 141.09 35.622 141.361 35.6086C141.928 35.5951 142.418 35.3061 142.831 34.7415C143.245 34.1635 143.493 33.3032 143.575 32.1606C143.611 31.596 143.546 31.1121 143.381 30.7088C143.227 30.2921 143.032 29.956 142.796 29.7006C142.56 29.4452 142.312 29.2638 142.052 29.1562C141.792 29.0487 141.586 29.0016 141.432 29.0151C141.22 29.042 140.983 29.1159 140.724 29.2369C140.476 29.3444 140.233 29.5124 139.997 29.741C139.761 29.956 139.549 30.2451 139.36 30.608C139.182 30.9709 139.059 31.4145 138.988 31.9388Z" fill="black"/>
<path d="M126.181 36.254C126.264 35.8104 126.323 35.4206 126.358 35.0845C126.405 34.735 126.441 34.446 126.464 34.2175C126.488 33.9487 126.5 33.7201 126.5 33.532C126.488 33.3034 126.476 33.0346 126.464 32.7254C126.464 32.4028 126.453 32.0869 126.429 31.7777C126.417 31.4551 126.399 31.1728 126.376 30.9309C126.352 30.6755 126.323 30.494 126.287 30.3864C126.24 30.2789 126.175 30.1646 126.092 30.0437C125.927 29.8151 125.685 29.5933 125.366 29.3783C125.638 29.3111 125.868 29.2573 126.057 29.217C126.258 29.1632 126.423 29.1161 126.553 29.0758C126.695 29.022 126.819 28.975 126.925 28.9347C127.019 28.8943 127.132 28.854 127.261 28.8137C127.368 28.7868 127.498 28.7532 127.651 28.7129C127.805 28.6725 127.982 28.6255 128.183 28.5717L128.129 30.4066C128.507 29.8958 128.891 29.5127 129.281 29.2573C129.67 29.0019 130.037 28.8204 130.379 28.7129C130.769 28.5784 131.152 28.5112 131.53 28.5112C132.003 28.5381 132.44 28.6255 132.841 28.7734C133.254 28.9212 133.609 29.096 133.904 29.2976C134.211 29.4858 134.459 29.6874 134.648 29.9025C134.837 30.1176 134.949 30.3058 134.984 30.4671C135.126 30.9913 135.162 31.4753 135.091 31.9189C135.02 32.349 134.925 32.7725 134.807 33.1892C134.701 33.5924 134.607 33.9957 134.524 34.399C134.453 34.8023 134.483 35.2391 134.612 35.7096C134.66 35.8306 134.707 35.9516 134.754 36.0726C134.801 36.1801 134.86 36.2876 134.931 36.3952C135.002 36.5027 135.085 36.5901 135.179 36.6573C135.049 36.6439 134.92 36.6371 134.79 36.6371C134.66 36.6237 134.542 36.6103 134.435 36.5968C134.305 36.5834 134.187 36.5699 134.081 36.5565C133.963 36.543 133.804 36.5363 133.603 36.5363C133.26 36.5363 132.729 36.5565 132.009 36.5968C132.115 36.3145 132.198 36.0793 132.257 35.8911C132.327 35.6895 132.387 35.5281 132.434 35.4072C132.481 35.2593 132.516 35.145 132.54 35.0644C132.682 34.6746 132.764 34.231 132.788 33.7336C132.823 33.2362 132.794 32.7321 132.699 32.2213C132.664 32.0466 132.605 31.8382 132.522 31.5963C132.44 31.3543 132.327 31.119 132.186 30.8905C132.056 30.662 131.896 30.4671 131.708 30.3058C131.53 30.1445 131.324 30.0504 131.088 30.0235C130.851 29.9966 130.586 30.0638 130.29 30.2251C130.007 30.3864 129.7 30.6822 129.369 31.1123C129.121 31.4753 128.927 31.9189 128.785 32.4431C128.655 32.8867 128.566 33.4446 128.519 34.1167C128.472 34.7754 128.543 35.5483 128.732 36.4355C128.566 36.4086 128.413 36.3952 128.271 36.3952C128.129 36.3817 128.011 36.3683 127.917 36.3549C127.799 36.3414 127.693 36.328 127.598 36.3145C127.492 36.3145 127.374 36.3078 127.244 36.2944C127.126 36.2944 126.978 36.2944 126.801 36.2944C126.624 36.2809 126.417 36.2675 126.181 36.254Z" fill="black"/>
<path d="M117.218 30.3059C117.277 30.2253 117.313 30.0774 117.324 29.8623C117.348 29.6338 117.395 29.3784 117.466 29.0961C117.549 28.8138 117.685 28.5181 117.873 28.2089C118.062 27.8997 118.369 27.6107 118.795 27.3419C119.208 27.073 119.609 26.9117 119.999 26.8579C120.389 26.8042 120.761 26.8243 121.115 26.9184C121.469 27.0125 121.8 27.1604 122.107 27.362C122.426 27.5637 122.715 27.7855 122.975 28.0274C123.152 28.1887 123.294 28.424 123.4 28.7332C123.506 29.0289 123.589 29.3649 123.648 29.7413C123.707 30.1177 123.748 30.5143 123.772 30.931C123.807 31.3342 123.831 31.7308 123.843 32.1206C123.855 32.497 123.861 32.8465 123.861 33.1691C123.872 33.4783 123.896 33.7337 123.931 33.9353C123.979 34.2311 124.061 34.4865 124.179 34.7016C124.297 34.9032 124.427 35.0779 124.569 35.2258C124.711 35.3602 124.852 35.4678 124.994 35.5484C125.136 35.6291 125.26 35.6896 125.366 35.7299C125.437 35.7702 125.502 35.7971 125.561 35.8106C125.679 35.8643 125.762 35.8643 125.809 35.8106C125.738 35.9988 125.673 36.1601 125.614 36.2945C125.555 36.4289 125.508 36.5432 125.472 36.6373C125.425 36.7448 125.384 36.8322 125.348 36.8994C125.313 36.98 125.272 37.054 125.224 37.1212C125.189 37.1884 125.142 37.2623 125.083 37.343C125.024 37.4236 124.965 37.511 124.906 37.6051C124.752 37.5379 124.605 37.4572 124.463 37.3632C124.333 37.2691 124.215 37.1817 124.109 37.101C123.979 37.0069 123.861 36.9128 123.754 36.8187C123.648 36.7246 123.548 36.6171 123.453 36.4961C123.37 36.3886 123.282 36.2743 123.187 36.1533C123.105 36.0324 123.034 35.8979 122.975 35.7501C122.904 35.9248 122.733 36.1735 122.461 36.4961C122.201 36.8187 121.859 37.1145 121.434 37.3833C121.009 37.6387 120.513 37.8202 119.946 37.9277C119.391 38.0353 118.777 37.9613 118.104 37.7059C117.809 37.5984 117.531 37.4438 117.271 37.2422C117.011 37.0271 116.787 36.7717 116.598 36.476C116.421 36.1802 116.291 35.8442 116.208 35.4678C116.138 35.0779 116.143 34.6478 116.226 34.1773C116.309 33.7068 116.456 33.3103 116.669 32.9877C116.882 32.665 117.135 32.4029 117.431 32.2013C117.726 31.9996 118.057 31.8451 118.423 31.7375C118.789 31.63 119.167 31.556 119.556 31.5157C119.863 31.5023 120.17 31.5224 120.477 31.5762C120.737 31.63 121.009 31.7308 121.292 31.8787C121.576 32.0131 121.818 32.2214 122.018 32.5037C122.007 31.7913 121.983 31.2267 121.948 30.81C121.924 30.3798 121.9 30.0505 121.877 29.822C121.829 29.5531 121.788 29.3649 121.753 29.2574C121.694 29.1633 121.629 29.0558 121.558 28.9348C121.499 28.8138 121.422 28.7063 121.328 28.6122C121.233 28.5046 121.115 28.4173 120.973 28.35C120.832 28.2828 120.666 28.2559 120.477 28.2694C120.277 28.2828 120.117 28.3433 119.999 28.4509C119.881 28.5584 119.787 28.6861 119.716 28.834C119.657 28.9684 119.621 29.1163 119.609 29.2776C119.598 29.4389 119.603 29.58 119.627 29.701C119.651 29.7817 119.686 29.869 119.733 29.9631C119.781 30.0438 119.846 30.1312 119.928 30.2253C120.011 30.3194 120.123 30.4 120.265 30.4672C119.993 30.5075 119.751 30.5412 119.539 30.568C119.326 30.5815 119.143 30.6016 118.989 30.6285C118.812 30.6554 118.659 30.6756 118.529 30.689C118.399 30.7025 118.245 30.7293 118.068 30.7697C117.915 30.7966 117.726 30.8302 117.502 30.8705C117.277 30.9108 117.017 30.9646 116.722 31.0318C116.793 30.9377 116.858 30.8503 116.917 30.7697C116.976 30.6756 117.029 30.5949 117.076 30.5277C117.124 30.4471 117.171 30.3731 117.218 30.3059ZM119.875 32.7054C119.663 32.7188 119.45 32.7793 119.237 32.8868C119.025 32.9809 118.836 33.1221 118.671 33.3103C118.505 33.485 118.364 33.6934 118.245 33.9353C118.139 34.1639 118.086 34.4193 118.086 34.7016C118.086 34.9839 118.145 35.2325 118.263 35.4476C118.393 35.6492 118.558 35.8173 118.759 35.9517C118.972 36.0861 119.196 36.1668 119.432 36.1937C119.68 36.2206 119.922 36.1937 120.158 36.113C120.383 36.0189 120.595 35.871 120.796 35.6694C120.997 35.4543 121.168 35.2258 121.31 34.9839C121.452 34.7284 121.552 34.4798 121.611 34.2378C121.67 33.9824 121.676 33.774 121.629 33.6127C121.534 33.2632 121.322 33.0213 120.991 32.8868C120.66 32.739 120.288 32.6785 119.875 32.7054Z" fill="black"/>
<path d="M105.882 23.8534C106.224 23.9206 106.525 23.9677 106.785 23.9945C107.057 24.0214 107.281 24.0416 107.458 24.055C107.671 24.0685 107.854 24.0752 108.007 24.0752C108.161 24.0752 108.379 24.0618 108.663 24.0349C108.899 24.008 109.206 23.9744 109.584 23.9341C109.973 23.8937 110.452 23.8265 111.018 23.7324C110.853 23.7862 110.7 23.9408 110.558 24.1962C110.428 24.4381 110.31 24.7003 110.204 24.9826C110.074 25.3186 109.962 25.6883 109.867 26.0916C109.784 26.4545 109.678 26.9519 109.548 27.5837C109.43 28.2155 109.312 28.901 109.194 29.6403C109.088 30.3797 109.005 31.1324 108.946 31.8987C108.887 32.6514 108.875 33.3437 108.911 33.9755C108.958 34.6073 109.07 35.1315 109.247 35.5483C109.424 35.9515 109.696 36.1666 110.062 36.1935C110.617 36.2473 111.078 36.254 111.444 36.2137C111.821 36.1599 112.129 36.086 112.365 35.9919C112.601 35.8978 112.784 35.7902 112.914 35.6692C113.044 35.5348 113.144 35.4071 113.215 35.2861C113.404 34.977 113.599 34.5804 113.799 34.0965C114 33.6126 114.177 33.1488 114.331 32.7052C114.496 32.2616 114.632 31.8852 114.738 31.576C114.845 31.2669 114.898 31.119 114.898 31.1324C114.898 31.1593 114.892 31.3139 114.88 31.5962C114.88 31.8651 114.874 32.1944 114.862 32.5842C114.862 32.9606 114.856 33.3572 114.845 33.7739C114.845 34.1906 114.839 34.5468 114.827 34.8425C114.815 35.0845 114.803 35.3533 114.791 35.6491C114.78 35.9045 114.768 36.2069 114.756 36.5564C114.756 36.9059 114.744 37.289 114.721 37.7058C114.225 37.6654 113.752 37.6385 113.303 37.6251C112.855 37.6117 112.459 37.6049 112.117 37.6049C111.715 37.6049 111.343 37.6117 111.001 37.6251C110.635 37.6385 110.21 37.6587 109.725 37.6856C109.312 37.7125 108.798 37.7461 108.184 37.7864C107.57 37.8133 106.862 37.8536 106.059 37.9074C106.153 37.7192 106.23 37.5445 106.289 37.3831C106.36 37.2218 106.413 37.0874 106.448 36.9799C106.496 36.8454 106.525 36.7312 106.537 36.6371C106.608 36.2069 106.667 35.6625 106.714 35.0038C106.761 34.3317 106.797 33.6193 106.82 32.8665C106.856 32.1137 106.874 31.3475 106.874 30.5679C106.885 29.7748 106.885 29.0422 106.874 28.37C106.862 27.6979 106.838 27.1132 106.803 26.6158C106.779 26.1184 106.744 25.7757 106.696 25.5875C106.637 25.3724 106.567 25.1573 106.484 24.9422C106.413 24.754 106.324 24.5658 106.218 24.3777C106.124 24.176 106.012 24.0013 105.882 23.8534Z" fill="black"/>
<path d="M88.7529 28.1684C88.9891 28.2087 89.2017 28.2423 89.3906 28.2692C89.5677 28.2827 89.7272 28.2961 89.8689 28.3095C90.0224 28.323 90.17 28.3297 90.3117 28.3297C90.4416 28.3297 90.6069 28.323 90.8077 28.3095C90.973 28.2961 91.1855 28.2827 91.4453 28.2692C91.7169 28.2423 92.0358 28.2087 92.4019 28.1684C92.3782 28.2222 92.331 28.3902 92.2601 28.6725C92.1893 28.9413 92.1184 29.2774 92.0476 29.6807C91.9767 30.0705 91.9118 30.5074 91.8527 30.9913C91.8055 31.4618 91.7819 31.9323 91.7819 32.4027C91.7937 32.8598 91.8468 33.2967 91.9413 33.7134C92.0358 34.1166 92.1893 34.446 92.4019 34.7014C92.8506 35.2256 93.2462 35.5415 93.5886 35.6491C93.9429 35.7566 94.2499 35.7432 94.5097 35.6088C94.7695 35.4743 94.9821 35.2727 95.1474 35.0038C95.3127 34.735 95.4308 34.4863 95.5017 34.2578C95.6788 33.6394 95.7851 32.9875 95.8205 32.3019C95.8441 31.7105 95.8028 31.0518 95.6965 30.3259C95.5902 29.6 95.3363 28.8607 94.9348 28.1079C95.2419 28.1348 95.5076 28.155 95.7319 28.1684C95.9563 28.1818 96.1512 28.1953 96.3165 28.2087C96.5054 28.2222 96.6707 28.2356 96.8124 28.2491C96.9423 28.2625 97.0959 28.2625 97.273 28.2491C97.4265 28.2491 97.6095 28.2423 97.8221 28.2289C98.0465 28.202 98.2945 28.1751 98.5661 28.1482C98.6133 29.4656 98.6546 30.6418 98.69 31.6769C98.7255 32.6985 98.7491 33.6058 98.7609 34.3989C98.7845 35.1786 98.7963 35.8574 98.7963 36.4355C98.7963 37 98.7963 37.4772 98.7963 37.8671C98.7845 38.7946 98.7491 39.4062 98.69 39.702C98.5956 40.1187 98.4243 40.5354 98.1764 40.9521C97.9402 41.3688 97.6391 41.7385 97.273 42.0611C96.9069 42.3971 96.4818 42.6526 95.9976 42.8273C95.5253 43.0155 95.0057 43.0827 94.4389 43.0289C93.8839 42.9752 93.441 42.8878 93.1104 42.7668C92.7915 42.6593 92.5377 42.5316 92.3487 42.3837C92.1716 42.2358 92.0417 42.0812 91.959 41.9199C91.8882 41.7586 91.835 41.5906 91.7996 41.4159C91.7642 41.2545 91.7288 41.1 91.6933 40.9521C91.6579 40.8042 91.587 40.6765 91.4808 40.569C91.3509 40.448 91.2151 40.327 91.0734 40.206C90.9435 40.0985 90.8018 39.991 90.6482 39.8834C90.5065 39.7759 90.3648 39.6885 90.2231 39.6213L93.996 39.3793C93.8898 39.5406 93.813 39.6885 93.7658 39.8229C93.7185 39.9574 93.689 40.0716 93.6772 40.1657C93.6654 40.2867 93.6713 40.3875 93.6949 40.4682C93.7422 40.6295 93.8248 40.8042 93.9429 40.9924C94.0728 41.1941 94.2381 41.3486 94.4389 41.4562C94.6396 41.5772 94.8758 41.6175 95.1474 41.5772C95.4308 41.5368 95.7497 41.3688 96.1039 41.0731C96.3991 40.8177 96.6471 40.4077 96.8479 39.8431C97.0132 39.3592 97.1431 38.6803 97.2376 37.8066C97.332 36.9328 97.3143 35.7835 97.1844 34.3586C96.9719 35.192 96.6825 35.8305 96.3165 36.2741C95.9504 36.7177 95.5843 37.0404 95.2183 37.242C94.7931 37.484 94.3503 37.6117 93.8898 37.6251C93.2757 37.5982 92.7502 37.5108 92.3133 37.363C91.8764 37.2017 91.5162 36.9866 91.2328 36.7177C90.9494 36.4489 90.725 36.133 90.5597 35.7701C90.4062 35.3937 90.294 34.977 90.2231 34.5199C90.1523 34.0629 90.1168 33.6058 90.1168 33.1488C90.1168 32.6783 90.1168 32.2414 90.1168 31.8382C90.1287 31.4349 90.1346 31.072 90.1346 30.7493C90.1346 30.4133 90.105 30.1444 90.046 29.9428C89.9751 29.7412 89.8807 29.5395 89.7626 29.3379C89.6681 29.1631 89.5382 28.9749 89.3729 28.7733C89.1958 28.5582 88.9891 28.3566 88.7529 28.1684Z" fill="black"/>
<path d="M75.0075 24.0148C75.3854 24.0282 75.716 24.035 75.9994 24.035C76.2828 24.0215 76.5131 24.0148 76.6902 24.0148H77.2039C77.3338 24.0014 77.4932 23.9946 77.6822 23.9946C77.8475 23.9946 78.0483 23.9946 78.2844 23.9946C78.5206 23.9946 78.7922 24.0014 79.0992 24.0148C79.1937 24.3912 79.3 24.7608 79.4181 25.1238C79.548 25.4733 79.6602 25.7892 79.7546 26.0715C79.8727 26.4075 79.9908 26.7234 80.1089 27.0192C80.227 27.3149 80.3687 27.6711 80.534 28.0878C80.6757 28.4373 80.847 28.8675 81.0477 29.3783C81.2485 29.8757 81.4846 30.447 81.7562 31.0922C81.8861 30.6755 82.0042 30.2924 82.1105 29.9429C82.2286 29.5934 82.329 29.2909 82.4116 29.0355C82.5061 28.7398 82.5828 28.4709 82.6419 28.229C82.7009 27.987 82.7659 27.6913 82.8367 27.3418C82.8958 27.046 82.9607 26.6898 83.0316 26.2731C83.1142 25.8564 83.1969 25.3725 83.2796 24.8213C83.622 24.8213 83.9291 24.8213 84.2007 24.8213C84.4723 24.8213 84.7084 24.8146 84.9092 24.8012C85.1335 24.8012 85.3343 24.7944 85.5114 24.781C85.7004 24.781 85.9543 24.7676 86.2731 24.7407C86.5447 24.7138 86.9049 24.6936 87.3536 24.6802C87.8142 24.6533 88.381 24.6197 89.0541 24.5794C88.8061 24.781 88.6053 24.9826 88.4518 25.1843C88.3101 25.3725 88.1979 25.5405 88.1153 25.6884C88.0208 25.8631 87.9618 26.0311 87.9381 26.1925C87.9145 26.3269 87.8909 26.6361 87.8673 27.12C87.8555 27.6039 87.8378 28.1819 87.8142 28.854C87.8023 29.5127 87.7905 30.2184 87.7787 30.9712C87.7787 31.724 87.7846 32.4364 87.7964 33.1086C87.8082 33.7807 87.826 34.3654 87.8496 34.8628C87.885 35.3467 87.9322 35.6559 87.9913 35.7903C88.0739 35.9516 88.1861 36.1398 88.3278 36.3549C88.4577 36.5431 88.6231 36.7582 88.8238 37.0001C89.0364 37.2421 89.3139 37.5109 89.6563 37.8067C89.1131 37.8335 88.6585 37.8537 88.2924 37.8671C87.9381 37.8806 87.6429 37.894 87.4067 37.9075C87.1351 37.9209 86.9167 37.9276 86.7514 37.9276C86.5742 37.9276 86.3321 37.9344 86.0251 37.9478C85.7535 37.9612 85.3933 37.9814 84.9446 38.0083C84.4959 38.0217 83.9172 38.0486 83.2087 38.0889C83.374 37.8739 83.5276 37.6588 83.6693 37.4437C83.811 37.2286 83.9291 37.0337 84.0235 36.859C84.1416 36.6573 84.242 36.4624 84.3246 36.2742C84.4073 36.0188 84.4723 35.5551 84.5195 34.8829C84.5667 34.3049 84.6022 33.4782 84.6258 32.4028C84.6494 31.314 84.6494 29.8555 84.6258 28.0273C84.4014 28.4441 84.2007 28.8608 84.0235 29.2775C83.8582 29.6807 83.7106 30.0504 83.5807 30.3865C83.439 30.7763 83.3091 31.1527 83.191 31.5156C83.0729 31.892 82.9489 32.3087 82.819 32.7658C82.7009 33.1556 82.5592 33.6194 82.3939 34.1571C82.2404 34.6948 82.0633 35.2862 81.8625 35.9314L81.1894 35.9718C81.0949 35.4341 81.0005 34.9502 80.906 34.52C80.8115 34.0764 80.7171 33.7 80.6226 33.3908C80.5163 33.0279 80.41 32.7053 80.3037 32.423C80.1857 32.1407 80.0558 31.8248 79.9141 31.4753C79.7842 31.1796 79.6247 30.8301 79.4358 30.4268C79.2587 30.0235 79.052 29.5732 78.8158 29.0758C78.6977 30.447 78.6269 31.5627 78.6033 32.423C78.5797 33.2699 78.5797 33.9285 78.6033 34.399C78.6269 34.9636 78.6623 35.3736 78.7096 35.629C78.7804 35.8575 78.8926 36.1129 79.0461 36.3952C79.176 36.6372 79.3531 36.9262 79.5775 37.2622C79.8137 37.5849 80.1148 37.9478 80.4809 38.3511C80.2211 38.3511 79.9495 38.3511 79.6661 38.3511C79.3827 38.3511 79.1229 38.3578 78.8867 38.3712C78.6033 38.3847 78.3258 38.3914 78.0542 38.3914C77.7708 38.4048 77.4401 38.425 77.0622 38.4519C76.7316 38.4788 76.336 38.5057 75.8754 38.5325C75.4149 38.5594 74.8835 38.6065 74.2812 38.6737C74.541 38.4855 74.7536 38.304 74.9189 38.1293C75.0842 37.9411 75.2141 37.7731 75.3086 37.6252C75.4267 37.4504 75.5153 37.2757 75.5743 37.1009C75.6097 36.9934 75.6393 36.7582 75.6629 36.3952C75.6983 36.0323 75.7278 35.5887 75.7514 35.0644C75.7869 34.5402 75.8105 33.9554 75.8223 33.3102C75.8459 32.665 75.8636 32.013 75.8754 31.3543C75.8991 30.6822 75.9168 30.0303 75.9286 29.3985C75.9404 28.7532 75.9463 28.1752 75.9463 27.6644C75.9581 27.1401 75.964 26.7033 75.964 26.3538C75.964 26.0043 75.964 25.7825 75.964 25.6884C75.9286 25.4867 75.8754 25.2851 75.8046 25.0835C75.7455 24.9087 75.6511 24.7272 75.5212 24.539C75.3913 24.3509 75.2201 24.1761 75.0075 24.0148Z" fill="black"/>
<path d="M46.5947 26.6479C47.3004 26.6659 47.885 26.6794 48.3488 26.6884C48.8225 26.6884 49.2056 26.6884 49.498 26.6884H50.2994H54.8054C54.8256 26.8684 54.8407 27.0438 54.8508 27.2148C54.8709 27.3767 54.881 27.5206 54.881 27.6466C54.881 27.7995 54.876 27.939 54.8659 28.065C54.8558 28.1909 54.8407 28.3259 54.8205 28.4698C54.8004 28.5958 54.7802 28.7307 54.76 28.8747C54.7399 29.0186 54.7046 29.1671 54.6542 29.32C54.5131 28.8342 54.3215 28.4653 54.0796 28.2134C53.8478 27.9615 53.6109 27.7771 53.3689 27.6601C53.0867 27.5251 52.7893 27.4532 52.4768 27.4442C52.0635 27.4622 51.7409 27.4937 51.509 27.5386C51.2772 27.5836 51.0957 27.6466 50.9647 27.7276C50.8336 27.8085 50.7328 27.903 50.6623 28.011C50.6018 28.1099 50.5363 28.2224 50.4657 28.3484C50.4052 28.4563 50.3498 28.6228 50.2994 28.8477C50.249 29.0366 50.1986 29.293 50.1482 29.6169C50.1078 29.9408 50.0625 30.3592 50.0121 30.872C50.2842 30.8 50.501 30.7325 50.6623 30.6695C50.8336 30.6066 50.9697 30.5526 51.0705 30.5076C51.1814 30.4536 51.2621 30.4041 51.3125 30.3592C51.3528 30.3052 51.4133 30.2062 51.4939 30.0623C51.5544 29.9363 51.635 29.7654 51.7359 29.5494C51.8467 29.3335 51.9778 29.0366 52.129 28.6587C52.1492 29.0726 52.1592 29.419 52.1592 29.6979C52.1592 29.9678 52.1643 30.1882 52.1744 30.3592C52.1744 30.5571 52.1794 30.7145 52.1895 30.8315V31.3443C52.1895 31.5332 52.1895 31.7896 52.1895 32.1135C52.1996 32.4284 52.2147 32.8288 52.2348 33.3146C52.1139 32.9817 52.003 32.7208 51.9022 32.5319C51.8115 32.334 51.7308 32.1855 51.6603 32.0865C51.5796 31.9696 51.509 31.8886 51.4486 31.8436C51.378 31.8256 51.2822 31.8076 51.1613 31.7896C51.0504 31.7807 50.9092 31.7762 50.7379 31.7762C50.5766 31.7762 50.3699 31.7986 50.1179 31.8436C50.0877 32.3385 50.0826 32.7388 50.1028 33.0447C50.133 33.3416 50.1734 33.571 50.2238 33.733C50.2742 33.9219 50.3346 34.0569 50.4052 34.1378C50.4959 34.2188 50.6774 34.2863 50.9496 34.3403C51.2217 34.3852 51.5292 34.4032 51.8719 34.3942C52.2248 34.3762 52.5826 34.3223 52.9455 34.2323C53.3084 34.1423 53.631 33.9939 53.9133 33.787C54.125 33.616 54.3518 33.4001 54.5937 33.1392C54.7953 32.9143 55.0171 32.6309 55.259 32.289C55.5111 31.9471 55.758 31.5332 56 31.0474C55.9596 31.4523 55.9294 31.7896 55.9092 32.0596C55.8992 32.3205 55.884 32.5319 55.8639 32.6938C55.8437 32.8828 55.8286 33.0267 55.8185 33.1257C55.8185 33.2336 55.8034 33.3866 55.7732 33.5845C55.753 33.7555 55.7177 33.9894 55.6673 34.2863C55.627 34.5742 55.5715 34.943 55.501 35.3929C55.0272 35.4019 54.5786 35.4109 54.1552 35.4199C53.7318 35.4199 53.3588 35.4244 53.0363 35.4334C52.6532 35.4424 52.3004 35.4514 51.9778 35.4604C51.6451 35.4604 51.2772 35.4739 50.874 35.5009C50.5211 35.5188 50.1028 35.5458 49.6189 35.5818C49.1451 35.6178 48.6209 35.6673 48.0463 35.7303C48.0967 35.1185 48.132 34.5427 48.1522 34.0029C48.1824 33.4541 48.2026 32.9727 48.2127 32.5589C48.2228 32.0731 48.2228 31.6232 48.2127 31.2094C48.2631 30.1747 48.2429 29.338 48.1522 28.6992C48.0615 28.0605 47.9556 27.6511 47.8346 27.4712C47.7742 27.4082 47.6885 27.3317 47.5776 27.2417C47.4869 27.1698 47.3609 27.0843 47.1996 26.9853C47.0383 26.8864 46.8367 26.7739 46.5947 26.6479Z" fill="black"/>
<path d="M39.2006 26.081C39.493 26.126 39.75 26.1574 39.9718 26.1754C40.2036 26.1934 40.3952 26.2069 40.5464 26.2159C40.7278 26.2249 40.8841 26.2294 41.0151 26.2294C41.1462 26.2294 41.3327 26.2204 41.5746 26.2024C41.7762 26.1844 42.0383 26.1619 42.3609 26.135C42.6936 26.108 43.1018 26.063 43.5857 26C43.4446 26.036 43.3135 26.1395 43.1926 26.3104C43.0817 26.4723 42.9809 26.6478 42.8901 26.8367C42.7793 27.0616 42.6835 27.309 42.6028 27.5789C42.5323 27.8219 42.4415 28.1547 42.3307 28.5776C42.2299 29.0004 42.129 29.4593 42.0282 29.9541C41.9375 30.4489 41.867 30.9528 41.8165 31.4656C41.7661 31.9694 41.7561 32.4327 41.7863 32.8556C41.8266 33.2785 41.9224 33.6293 42.0736 33.9082C42.2248 34.1781 42.4567 34.3221 42.7692 34.3401C43.243 34.3761 43.6361 34.3806 43.9486 34.3536C44.2712 34.3176 44.5333 34.2681 44.7349 34.2051C44.9365 34.1422 45.0928 34.0702 45.2036 33.9892C45.3145 33.8992 45.4002 33.8138 45.4607 33.7328C45.622 33.5259 45.7883 33.2605 45.9597 32.9366C46.1311 32.6127 46.2823 32.3023 46.4133 32.0054C46.5545 31.7085 46.6704 31.4566 46.7611 31.2497C46.8518 31.0427 46.8972 30.9438 46.8972 30.9528C46.8972 30.9708 46.8922 31.0742 46.8821 31.2632C46.8821 31.4431 46.877 31.6635 46.867 31.9244C46.867 32.1763 46.8619 32.4417 46.8518 32.7206C46.8518 32.9996 46.8468 33.238 46.8367 33.4359C46.8266 33.5978 46.8165 33.7778 46.8065 33.9757C46.7964 34.1466 46.7863 34.3491 46.7762 34.583C46.7762 34.8169 46.7661 35.0733 46.746 35.3522C46.3226 35.3252 45.9194 35.3072 45.5363 35.2982C45.1532 35.2892 44.8155 35.2848 44.5232 35.2848C44.1805 35.2848 43.8629 35.2892 43.5706 35.2982C43.2581 35.3072 42.8952 35.3207 42.4819 35.3387C42.129 35.3567 41.6905 35.3792 41.1663 35.4062C40.6422 35.4242 40.0373 35.4512 39.3518 35.4872C39.4325 35.3612 39.498 35.2443 39.5484 35.1363C39.6089 35.0283 39.6543 34.9384 39.6845 34.8664C39.7248 34.7764 39.75 34.7 39.7601 34.637C39.8206 34.3491 39.871 33.9847 39.9113 33.5439C39.9516 33.094 39.9819 32.6172 40.002 32.1134C40.0323 31.6095 40.0474 31.0967 40.0474 30.5749C40.0575 30.0441 40.0575 29.5538 40.0474 29.1039C40.0373 28.6541 40.0172 28.2627 39.9869 27.9298C39.9668 27.5969 39.9365 27.3675 39.8962 27.2416C39.8458 27.0976 39.7853 26.9537 39.7147 26.8097C39.6543 26.6838 39.5786 26.5578 39.4879 26.4318C39.4073 26.2969 39.3115 26.1799 39.2006 26.081Z" fill="black"/>
<path d="M26.62 26.1888C26.9425 26.1978 27.2248 26.2023 27.4667 26.2023C27.7087 26.1933 27.9052 26.1888 28.0565 26.1888H28.495C28.6058 26.1798 28.7419 26.1753 28.9032 26.1753C29.0444 26.1753 29.2157 26.1753 29.4173 26.1753C29.619 26.1753 29.8508 26.1798 30.1129 26.1888C30.1935 26.4407 30.2843 26.6881 30.3851 26.931C30.496 27.1649 30.5917 27.3764 30.6724 27.5653C30.7732 27.7902 30.874 28.0017 30.9748 28.1996C31.0756 28.3975 31.1966 28.6359 31.3377 28.9148C31.4587 29.1488 31.6048 29.4367 31.7762 29.7785C31.9476 30.1114 32.1492 30.4938 32.381 30.9256C32.4919 30.6467 32.5927 30.3903 32.6835 30.1564C32.7843 29.9225 32.87 29.7201 32.9405 29.5491C33.0212 29.3512 33.0867 29.1712 33.1371 29.0093C33.1875 28.8474 33.2429 28.6494 33.3034 28.4155C33.3538 28.2176 33.4093 27.9792 33.4698 27.7003C33.5403 27.4214 33.6109 27.0975 33.6815 26.7286C33.9738 26.7286 34.2359 26.7286 34.4677 26.7286C34.6996 26.7286 34.9012 26.7241 35.0726 26.7151C35.2641 26.7151 35.4355 26.7106 35.5867 26.7016C35.748 26.7016 35.9647 26.6926 36.2369 26.6746C36.4687 26.6566 36.7762 26.6431 37.1593 26.6341C37.5524 26.6161 38.0363 26.5936 38.6109 26.5667C38.3992 26.7016 38.2278 26.8366 38.0968 26.9715C37.9758 27.0975 37.88 27.2099 37.8095 27.3089C37.7288 27.4259 37.6784 27.5383 37.6583 27.6463C37.6381 27.7362 37.6179 27.9432 37.5978 28.2671C37.5877 28.5909 37.5726 28.9778 37.5524 29.4277C37.5423 29.8685 37.5323 30.3408 37.5222 30.8447C37.5222 31.3485 37.5272 31.8253 37.5373 32.2752C37.5474 32.725 37.5625 33.1164 37.5827 33.4492C37.6129 33.7731 37.6532 33.9801 37.7036 34.07C37.7742 34.178 37.87 34.3039 37.9909 34.4479C38.1018 34.5739 38.2429 34.7178 38.4143 34.8797C38.5958 35.0417 38.8327 35.2216 39.125 35.4196C38.6613 35.4376 38.2732 35.451 37.9607 35.46C37.6583 35.469 37.4062 35.478 37.2046 35.487C36.9728 35.496 36.7863 35.5005 36.6452 35.5005C36.494 35.5005 36.2873 35.505 36.0252 35.514C35.7933 35.523 35.4859 35.5365 35.1028 35.5545C34.7198 35.5635 34.2258 35.5815 33.621 35.6085C33.7621 35.4645 33.8931 35.3206 34.0141 35.1766C34.1351 35.0327 34.2359 34.9022 34.3165 34.7853C34.4173 34.6503 34.503 34.5199 34.5736 34.3939C34.6442 34.223 34.6996 33.9126 34.7399 33.4627C34.7802 33.0759 34.8105 32.5226 34.8306 31.8028C34.8508 31.0741 34.8508 30.0979 34.8306 28.8743C34.6391 29.1533 34.4677 29.4322 34.3165 29.7111C34.1754 29.981 34.0494 30.2284 33.9385 30.4533C33.8175 30.7142 33.7067 30.9661 33.6058 31.209C33.505 31.4609 33.3992 31.7398 33.2883 32.0457C33.1875 32.3066 33.0665 32.617 32.9254 32.9769C32.7944 33.3368 32.6431 33.7326 32.4718 34.1645L31.8972 34.1915C31.8165 33.8316 31.7359 33.5077 31.6552 33.2198C31.5746 32.9229 31.494 32.671 31.4133 32.4641C31.3226 32.2212 31.2319 32.0053 31.1411 31.8163C31.0403 31.6274 30.9294 31.416 30.8085 31.182C30.6976 30.9841 30.5615 30.7502 30.4002 30.4803C30.249 30.2104 30.0726 29.909 29.871 29.5761C29.7702 30.4938 29.7097 31.2405 29.6895 31.8163C29.6694 32.3831 29.6694 32.824 29.6895 33.1389C29.7097 33.5167 29.7399 33.7911 29.7802 33.9621C29.8407 34.115 29.9365 34.286 30.0675 34.4749C30.1784 34.6368 30.3296 34.8303 30.5212 35.0552C30.7228 35.2711 30.9798 35.514 31.2923 35.7839C31.0706 35.7839 30.8387 35.7839 30.5968 35.7839C30.3548 35.7839 30.1331 35.7884 29.9315 35.7974C29.6895 35.8064 29.4526 35.8109 29.2208 35.8109C28.9788 35.8199 28.6966 35.8334 28.374 35.8514C28.0917 35.8694 27.754 35.8874 27.3609 35.9054C26.9677 35.9234 26.5141 35.9549 26 35.9999C26.2218 35.8739 26.4032 35.7524 26.5444 35.6355C26.6855 35.5095 26.7964 35.3971 26.877 35.2981C26.9778 35.1811 27.0534 35.0642 27.1038 34.9472C27.1341 34.8752 27.1593 34.7178 27.1794 34.4749C27.2097 34.232 27.2349 33.9351 27.255 33.5842C27.2853 33.2333 27.3054 32.842 27.3155 32.4101C27.3357 31.9783 27.3508 31.5419 27.3609 31.1011C27.381 30.6512 27.3962 30.2149 27.4062 29.792C27.4163 29.3602 27.4214 28.9733 27.4214 28.6314C27.4315 28.2806 27.4365 27.9882 27.4365 27.7542C27.4365 27.5203 27.4365 27.3719 27.4365 27.3089C27.4062 27.1739 27.3609 27.039 27.3004 26.904C27.25 26.7871 27.1694 26.6656 27.0585 26.5397C26.9476 26.4137 26.8014 26.2968 26.62 26.1888Z" fill="black"/>
<defs>
<filter id="filter0_d_10_472" x="0" y="0" width="63.7812" height="69" filterUnits="userSpaceOnUse" color-interpolation-filters="sRGB">
<feFlood flood-opacity="0" result="BackgroundImageFix"/>
<feColorMatrix in="SourceAlpha" type="matrix" values="0 0 0 0 0 0 0 0 0 0 0 0 0 0 0 0 0 0 127 0" result="hardAlpha"/>
<feOffset dy="10"/>
<feGaussianBlur stdDeviation="2"/>
<feComposite in2="hardAlpha" operator="out"/>
<feColorMatrix type="matrix" values="0 0 0 0 0 0 0 0 0 0 0 0 0 0 0 0 0 0 0.25 0"/>
<feBlend mode="normal" in2="BackgroundImageFix" result="effect1_dropShadow_10_472"/>
<feBlend mode="normal" in="SourceGraphic" in2="effect1_dropShadow_10_472" result="shape"/>
</filter>
<filter id="filter1_d_10_472" x="14.2188" y="0" width="63.7812" height="69" filterUnits="userSpaceOnUse" color-interpolation-filters="sRGB">
<feFlood flood-opacity="0" result="BackgroundImageFix"/>
<feColorMatrix in="SourceAlpha" type="matrix" values="0 0 0 0 0 0 0 0 0 0 0 0 0 0 0 0 0 0 127 0" result="hardAlpha"/>
<feOffset dy="10"/>
<feGaussianBlur stdDeviation="2"/>
<feComposite in2="hardAlpha" operator="out"/>
<feColorMatrix type="matrix" values="0 0 0 0 0 0 0 0 0 0 0 0 0 0 0 0 0 0 0.25 0"/>
<feBlend mode="normal" in2="BackgroundImageFix" result="effect1_dropShadow_10_472"/>
<feBlend mode="normal" in="SourceGraphic" in2="effect1_dropShadow_10_472" result="shape"/>
</filter>
</defs>
</svg>
